<svg xmlns="http://www.w3.org/2000/svg" width="760" height="258" viewBox="0 0 760 258" role="img" aria-label="Personal Portfolio: A carefully crafted portfolio with real project case studies and polished web interactions.">
<rect x="1" y="1" width="758" height="256" rx="20" fill="#0d1420" stroke="#2c3b51" stroke-width="2"/>
<rect x="1" y="39" width="5" height="180" rx="2" fill="#78acfa"/>
<text x="32" y="49" fill="#78acfa" font-family="Segoe UI, Helvetica Neue, Arial, sans-serif" font-size="17" font-weight="700" letter-spacing="1.6">WEB ENGINEERING</text>
<text x="32" y="99" fill="#f4f7fc" font-family="Segoe UI, Helvetica Neue, Arial, sans-serif" font-size="39" font-weight="700">Personal Portfolio</text>
<text x="32" y="142" fill="#b8c6d7" font-family="Segoe UI, Helvetica Neue, Arial, sans-serif" font-size="21">A carefully crafted portfolio with real project</text>
<text x="32" y="171" fill="#b8c6d7" font-family="Segoe UI, Helvetica Neue, Arial, sans-serif" font-size="21">case studies and polished web interactions.</text>
<g font-family="Segoe UI, Helvetica Neue, Arial, sans-serif"><rect x="32" y="199" width="105" height="34" rx="9" fill="#192b44" stroke="#324763"/><text x="46" y="222" fill="#b8c6d7" font-size="18" font-weight="500">Next.js</text><rect x="147" y="199" width="138" height="34" rx="9" fill="#192b44" stroke="#324763"/><text x="161" y="222" fill="#b8c6d7" font-size="18" font-weight="500">TypeScript</text><rect x="295" y="199" width="160" height="34" rx="9" fill="#192b44" stroke="#324763"/><text x="309" y="222" fill="#b8c6d7" font-size="18" font-weight="500">Tailwind CSS</text></g>
<g stroke="#78acfa" stroke-width="3.5" fill="none" stroke-linecap="round" stroke-linejoin="round" opacity=".8"><rect x="605" y="42" width="108" height="85" rx="12"/><path d="M605 64 H713"/><circle cx="620" cy="53" r="2.2" fill="#78acfa"/><circle cx="632" cy="53" r="2.2" fill="#78acfa"/><path d="M623 84 H658 M623 101 H684 M667 84 H693"/></g>
</svg>