<svg xmlns="http://www.w3.org/2000/svg" width="650" height="219" viewBox="0 0 650 219" role="img" aria-label="Document Indexing System">
<rect x="1" y="1" width="648" height="217" rx="13" fill="#fbfbfb" stroke="#d4d4d4" stroke-width="2"/>
<text x="26" y="36" fill="#777777" font-family="Arial,Helvetica,sans-serif" font-size="13" font-weight="700" letter-spacing="1.6">SYSTEMS PROGRAMMING</text>
<text x="26" y="81" fill="#202020" font-family="Arial,Helvetica,sans-serif" font-size="29" font-weight="700">Document Indexing System</text>
<text x="26" y="119" fill="#555555" font-family="Arial,Helvetica,sans-serif" font-size="20">Concurrent client-server indexing</text>
<text x="26" y="145" fill="#555555" font-family="Arial,Helvetica,sans-serif" font-size="20">with FIFOs, search, and LRU caching.</text>
<rect x="26" y="173" width="38" height="26" rx="6" fill="#ededed" stroke="#dfdfdf" stroke-width="1"/><text x="39" y="191" fill="#444444" font-family="Arial,Helvetica,sans-serif" font-size="16">C</text><rect x="73" y="173" width="75" height="26" rx="6" fill="#ededed" stroke="#dfdfdf" stroke-width="1"/><text x="86" y="191" fill="#444444" font-family="Arial,Helvetica,sans-serif" font-size="16">POSIX</text><rect x="157" y="173" width="65" height="26" rx="6" fill="#ededed" stroke="#dfdfdf" stroke-width="1"/><text x="170" y="191" fill="#444444" font-family="Arial,Helvetica,sans-serif" font-size="16">Make</text>
<rect x="575" y="21" width="50" height="50" rx="11" fill="#f0f0f0" stroke="#e0e0e0" stroke-width="1.3"/>
    <g transform="translate(584 30) scale(1.34)" fill="none" stroke="#737373" stroke-width="1.65" stroke-linecap="round" stroke-linejoin="round"><path d="M13.5 3H6a2 2 0 0 0-2 2v14a2 2 0 0 0 2 2h6"/><path d="M13.5 3V8H19"/><path d="m13.5 3 5.5 5v3"/><circle cx="16.5" cy="16.5" r="3.2"/><path d="m19 19 2.2 2.2"/></g>
</svg>